<svg preserveAspectRatio="none" width="100%" height="100%" overflow="visible" style="display: block;" viewBox="0 0 253.058 55.2786" fill="none" xmlns="http://www.w3.org/2000/svg">
<g id="Logo/MeshMesh">
<path id="Vector" fill-rule="evenodd" clip-rule="evenodd" d="M56.6716 26.8378H37.1273L39.9709 21.3309H53.828L56.6716 26.8378ZM45.6577 48.1679H39.9709L29.7848 28.4408H35.4712L45.6577 48.1679ZM2.84362 22.1325L5.68723 27.6393L2.84362 33.1461L0 27.6393L2.84362 22.1325ZM35.885 0.802158L38.7286 6.30836L28.5432 26.0358L25.6996 20.5287L35.885 0.802158ZM17.9429 35.5511H23.6295L13.8576 54.4762L11.0141 48.9702L17.9429 35.5511ZM39.9709 33.9477L37.1273 28.4408H56.6716L53.828 33.9477H39.9709ZM45.6577 5.5069H39.9709L37.1273 0H42.8141L45.6577 5.5069ZM35.4712 26.8378H29.7848L39.9709 7.11052H45.6577L35.4712 26.8378ZM37.1273 55.2786L39.9709 49.7718H45.6577L42.8141 55.2786H37.1273ZM27.7146 13.4189L24.8718 18.9258L15.0993 0H20.7866L27.7146 13.4189ZM15.0993 55.2786L24.8718 36.3527L27.7146 41.8595L20.7866 55.2786H15.0993ZM25.6996 34.75L28.5432 29.2428L38.7286 48.9702L35.885 54.4762L25.6996 34.75ZM13.8576 0.802158L23.6295 19.7273H17.9429L11.0141 6.30836L13.8576 0.802158ZM4.08587 33.9477L6.92882 28.4408H27.3009L24.4573 33.9477H4.08587ZM24.4573 21.3309L27.3009 26.8378H6.92882L4.08587 21.3309H24.4573Z" fill="var(--fill-0, #F9F9F9)"/>
<path id="Vector_2" d="M66.6716 41.6676V13.1287H72.2284L80.1507 36.5627L88.073 13.1287H93.6298V41.6676H89.5748V20.7658L82.4035 41.6274H77.8979L70.7266 20.7658V41.6676H66.6716ZM107.517 42.1499C105.565 42.1499 103.875 41.6945 102.449 40.7833C101.047 39.872 99.9583 38.5725 99.1822 36.8843C98.4312 35.1961 98.0558 33.2265 98.0558 30.9755C98.0558 28.7246 98.4312 26.7683 99.1822 25.107C99.9583 23.4188 101.047 22.1192 102.449 21.208C103.851 20.2701 105.503 19.8011 107.405 19.8011C109.207 19.8011 110.797 20.2567 112.173 21.1678C113.55 22.0521 114.614 23.3384 115.365 25.0266C116.141 26.7148 116.529 28.7515 116.529 31.1363V32.2216H102.186C102.286 34.3118 102.799 35.8794 103.725 36.9245C104.677 37.9696 105.953 38.4921 107.555 38.4921C108.732 38.4921 109.708 38.1975 110.484 37.6078C111.26 37.0181 111.798 36.2279 112.098 35.2363L116.228 35.5176C115.703 37.5005 114.664 39.1083 113.112 40.3411C111.585 41.547 109.72 42.1499 107.517 42.1499ZM102.186 29.0059H112.323C112.198 27.1035 111.685 25.6966 110.784 24.7854C109.908 23.8742 108.782 23.4188 107.405 23.4188C105.978 23.4188 104.802 23.9011 103.875 24.8658C102.974 25.8036 102.411 27.1839 102.186 29.0059ZM128.258 42.1499C126.381 42.1499 124.792 41.8416 123.49 41.2254C122.213 40.6092 121.225 39.7651 120.524 38.6931C119.823 37.5946 119.423 36.3348 119.322 34.9147L123.415 34.7137C123.615 35.8927 124.091 36.8308 124.842 37.5274C125.593 38.224 126.731 38.5725 128.258 38.5725C129.51 38.5725 130.499 38.3583 131.225 37.9294C131.95 37.5005 132.313 36.8172 132.313 35.8794C132.313 35.3701 132.188 34.9416 131.938 34.5931C131.713 34.2181 131.262 33.9098 130.586 33.6686C129.91 33.4005 128.909 33.1461 127.583 32.9049C125.605 32.503 124.053 32.0339 122.927 31.4981C121.8 30.9623 121 30.2789 120.524 29.4481C120.048 28.6173 119.81 27.6124 119.81 26.4334C119.81 24.4771 120.486 22.8829 121.838 21.6501C123.215 20.4175 125.192 19.8011 127.77 19.8011C129.497 19.8011 130.949 20.1227 132.126 20.7658C133.302 21.382 134.216 22.2261 134.867 23.2982C135.542 24.3433 135.968 25.5222 136.143 26.8354L132.051 27.0766C131.926 26.3261 131.675 25.683 131.3 25.1472C130.949 24.5844 130.474 24.1555 129.873 23.8609C129.272 23.5393 128.559 23.3786 127.733 23.3786C126.456 23.3786 125.505 23.6467 124.879 24.1825C124.253 24.7183 123.941 25.4153 123.941 26.2726C123.941 26.9158 124.078 27.4383 124.354 27.8403C124.654 28.2422 125.13 28.5771 125.78 28.8452C126.431 29.0863 127.295 29.3006 128.371 29.4883C130.448 29.8633 132.076 30.3324 133.252 30.8951C134.428 31.4309 135.254 32.101 135.73 32.9049C136.206 33.7088 136.443 34.6868 136.443 35.8392C136.443 37.1789 136.093 38.3181 135.392 39.2558C134.691 40.1936 133.728 40.9171 132.501 41.4264C131.274 41.9087 129.86 42.1499 128.258 42.1499ZM140.471 41.6676V13.1287H144.451V25.107L143.963 25.0266C144.188 23.8207 144.601 22.8427 145.202 22.0923C145.803 21.3153 146.541 20.739 147.417 20.3639C148.293 19.9887 149.257 19.8011 150.308 19.8011C151.76 19.8011 152.987 20.1495 153.988 20.8462C154.989 21.5163 155.74 22.4673 156.241 23.7001C156.766 24.9329 157.029 26.3398 157.029 27.9207V41.6676H153.049V29.0461C153.049 27.1168 152.736 25.6966 152.11 24.7854C151.51 23.8476 150.559 23.3786 149.257 23.3786C147.805 23.3786 146.641 23.8742 145.765 24.8658C144.889 25.8305 144.451 27.2506 144.451 29.1265V41.6676H140.471ZM162.701 41.6676V13.1287H168.258L176.18 36.5627L184.102 13.1287H189.659V41.6676H185.604V20.7658L178.433 41.6274H173.927L166.756 20.7658V41.6676H162.701ZM203.547 42.1499C201.594 42.1499 199.905 41.6945 198.478 40.7833C197.076 39.872 195.987 38.5725 195.211 36.8843C194.46 35.1961 194.085 33.2265 194.085 30.9755C194.085 28.7246 194.46 26.7683 195.211 25.107C195.987 23.4188 197.076 22.1192 198.478 21.208C199.879 20.2701 201.531 19.8011 203.434 19.8011C205.236 19.8011 206.826 20.2567 208.202 21.1678C209.579 22.0521 210.643 23.3384 211.394 25.0266C212.17 26.7148 212.558 28.7515 212.558 31.1363V32.2216H198.215C198.315 34.3118 198.828 35.8794 199.754 36.9245C200.705 37.9696 201.982 38.4921 203.584 38.4921C204.76 38.4921 205.737 38.1975 206.513 37.6078C207.289 37.0181 207.827 36.2279 208.127 35.2363L212.257 35.5176C211.732 37.5005 210.693 39.1083 209.141 40.3411C207.614 41.547 205.749 42.1499 203.547 42.1499ZM198.215 29.0059H208.353C208.227 27.1035 207.714 25.6966 206.813 24.7854C205.937 23.8742 204.811 23.4188 203.434 23.4188C202.007 23.4188 200.831 23.9011 199.905 24.8658C199.004 25.8036 198.44 27.1839 198.215 29.0059ZM224.288 42.1499C222.41 42.1499 220.821 41.8416 219.519 41.2254C218.243 40.6092 217.254 39.7651 216.553 38.6931C215.852 37.5946 215.451 36.3348 215.352 34.9147L219.444 34.7137C219.644 35.8927 220.12 36.8308 220.871 37.5274C221.622 38.224 222.761 38.5725 224.288 38.5725C225.539 38.5725 226.528 38.3583 227.254 37.9294C227.979 37.5005 228.343 36.8172 228.343 35.8794C228.343 35.3701 228.217 34.9416 227.967 34.5931C227.742 34.2181 227.291 33.9098 226.615 33.6686C225.94 33.4005 224.938 33.1461 223.612 32.9049C221.634 32.503 220.082 32.0339 218.956 31.4981C217.83 30.9623 217.028 30.2789 216.553 29.4481C216.077 28.6173 215.84 27.6124 215.84 26.4334C215.84 24.4771 216.515 22.8829 217.867 21.6501C219.244 20.4175 221.221 19.8011 223.799 19.8011C225.527 19.8011 226.978 20.1227 228.155 20.7658C229.331 21.382 230.245 22.2261 230.896 23.2982C231.572 24.3433 231.997 25.5222 232.172 26.8354L228.08 27.0766C227.954 26.3261 227.704 25.683 227.329 25.1472C226.978 24.5844 226.503 24.1555 225.902 23.8609C225.301 23.5393 224.588 23.3786 223.762 23.3786C222.485 23.3786 221.534 23.6467 220.908 24.1825C220.282 24.7183 219.97 25.4153 219.97 26.2726C219.97 26.9158 220.107 27.4383 220.383 27.8403C220.683 28.2422 221.158 28.5771 221.809 28.8452C222.46 29.0863 223.324 29.3006 224.4 29.4883C226.478 29.8633 228.104 30.3324 229.281 30.8951C230.458 31.4309 231.284 32.101 231.759 32.9049C232.235 33.7088 232.473 34.6868 232.473 35.8392C232.473 37.1789 232.122 38.3181 231.421 39.2558C230.72 40.1936 229.757 40.9171 228.53 41.4264C227.304 41.9087 225.889 42.1499 224.288 42.1499ZM236.5 41.6676V13.1287H240.48V25.107L239.992 25.0266C240.217 23.8207 240.63 22.8427 241.231 22.0923C241.832 21.3153 242.57 20.739 243.446 20.3639C244.322 19.9887 245.286 19.8011 246.337 19.8011C247.789 19.8011 249.016 20.1495 250.017 20.8462C251.018 21.5163 251.769 22.4673 252.27 23.7001C252.795 24.9329 253.058 26.3398 253.058 27.9207V41.6676H249.078V29.0461C249.078 27.1168 248.765 25.6966 248.14 24.7854C247.539 23.8476 246.588 23.3786 245.286 23.3786C243.834 23.3786 242.67 23.8742 241.794 24.8658C240.918 25.8305 240.48 27.2506 240.48 29.1265V41.6676H236.5Z" fill="var(--fill-0, #F9F9F9)"/>
</g>
</svg>
