<svg width="57" height="56" viewBox="0 0 57 56" fill="none" xmlns="http://www.w3.org/2000/svg">
<path fill-rule="evenodd" clip-rule="evenodd" d="M56.6716 26.8378H37.1273L39.9709 21.3309H53.828L56.6716 26.8378ZM45.6577 48.1679H39.9709L29.7848 28.4408H35.4712L45.6577 48.1679ZM2.84362 22.1325L5.68723 27.6393L2.84362 33.1461L0 27.6393L2.84362 22.1325ZM35.885 0.802158L38.7286 6.30836L28.5432 26.0358L25.6996 20.5287L35.885 0.802158ZM17.9429 35.5511H23.6295L13.8576 54.4762L11.0141 48.9702L17.9429 35.5511ZM39.9709 33.9477L37.1273 28.4408H56.6716L53.828 33.9477H39.9709ZM45.6577 5.5069H39.9709L37.1273 0H42.8141L45.6577 5.5069ZM35.4712 26.8378H29.7848L39.9709 7.11052H45.6577L35.4712 26.8378ZM37.1273 55.2786L39.9709 49.7718H45.6577L42.8141 55.2786H37.1273ZM27.7146 13.4189L24.8718 18.9258L15.0993 0H20.7866L27.7146 13.4189ZM15.0993 55.2786L24.8718 36.3527L27.7146 41.8595L20.7866 55.2786H15.0993ZM25.6996 34.75L28.5432 29.2428L38.7286 48.9702L35.885 54.4762L25.6996 34.75ZM13.8576 0.802158L23.6295 19.7273H17.9429L11.0141 6.30836L13.8576 0.802158ZM4.08587 33.9477L6.92882 28.4408H27.3009L24.4573 33.9477H4.08587ZM24.4573 21.3309L27.3009 26.8378H6.92882L4.08587 21.3309H24.4573Z" fill="#F9F9F9"/>
</svg>
